<svg width="1499" height="263" viewBox="155 72 1499 263" xmlns="http://www.w3.org/2000/svg" xmlns:xlink="http://www.w3.org/1999/xlink" overflow="hidden"><defs><pattern width="10" height="10" patternUnits="userSpaceOnUse" id="djs-grid-pattern-330260" overflow="hidden"><circle cx="0.5" cy="0.5" r="0.5" fill="#CCCCCC"/></pattern><marker refX="11" refY="10" markerWidth="10" markerHeight="10" markerUnits="strokeWidth" orient="auto" viewBox="0 0 20 20" id="sequenceflow-end-white-hsl_225_10_15_-ddffo594fxlmataoyrfeefht2" overflow="hidden"><path d="M1 5 11 10 1 15Z" stroke="#22242A" stroke-linecap="round" stroke-linejoin="round" fill="#22242A"/></marker><marker refY="10" markerWidth="10" markerHeight="10" markerUnits="strokeWidth" orient="auto" viewBox="0 0 20 20" id="conditional-default-flow-marker-white-hsl_225_10_15_-ddffo594fxlmataoyrfeefht2" overflow="hidden"><path d="M6 4 10 16" stroke="#22242A" stroke-width="2" stroke-linecap="round" stroke-linejoin="round" fill="#FFFFFF"/></marker></defs><g><g transform="translate(160 99)"><g><circle cx="18" cy="18" r="18" stroke="#22242A" stroke-width="2" stroke-linecap="round" stroke-linejoin="round" fill="#FFFFFF" fill-opacity="0.95"/></g><rect x="0" y="0" width="36" height="36" stroke="#FFFFFF" stroke-width="15" stroke-opacity="0" fill="none"/><circle cx="18" cy="18" r="23" fill="none"/></g></g><g><g transform="translate(510 77)"><g><rect x="0" y="0" rx="10" ry="10" width="100" height="80" stroke="#22242A" stroke-width="2" stroke-linecap="round" stroke-linejoin="round" fill="#FFFFFF" fill-opacity="0.95"/><text fill="#22242A" font-family="Arial,Arial" font-weight="400" font-size="12"><tspan x="7.5" y="43.6">Review Service</tspan></text><path d="M15 12C15.909 11.155 16.594 9.951 16.594 8.615 16.594 6.061 14.789 3.993 12.237 3.993 9.685 3.993 7.949 6.061 7.949 8.615 7.949 9.963 8.923 11.177 9.845 12.02 9.316 12.207 4.176 14.117 4.051 16.776L4.051 23.494 21.051 23.494 21.051 16.776C21.051 14.478 15.523 12.181 15 12ZM7 18 7 23.5M18 23.5 18 18.5" stroke="#22242A" stroke-width="0.5" stroke-linecap="round" stroke-linejoin="round" fill="#FFFFFF"/><path d="M17.162 13.009C17.162 15.456 15.004 17.44 12.341 17.44 9.676 17.44 7.519 15.459 7.519 13.009" stroke="#22242A" stroke-width="0.5" stroke-linecap="round" stroke-linejoin="round" fill="#FFFFFF"/><path d="M8.1 8.2C8.1 8.2 10.351 5.842 12.374 7.023 14.398 8.204 16.595 8.56 16.498 7.988 16.4 7.418 16.381 4.197 12.307 3.852 8.732 3.853 8.099 7.219 8.1 8.2Z" stroke="#22242A" stroke-width="0.5" stroke-linecap="round" stroke-linejoin="round" fill="#22242A"/></g><rect x="0" y="0" width="100" height="80" stroke="#FFFFFF" stroke-width="15" stroke-opacity="0" fill="none"/><rect x="-5" y="-5" rx="14" width="110" height="90" fill="none"/></g></g><g><g transform="translate(775 92)"><g><path d="M25 0 50 25 25 50 0 25Z" stroke="#22242A" stroke-width="2" stroke-linecap="round" stroke-linejoin="round" fill="#FFFFFF" fill-opacity="0.95"/><path d="M16 15 23.4286 24.7143 16 34.4286 19.4286 34.4286 25.1429 26.9643 30.8571 34.4286 34.2857 34.4286 26.8571 24.7143 34.2857 15 30.8571 15 25.1429 22.4642 19.4286 15 16 15Z" stroke="#22242A" stroke-linecap="round" stroke-linejoin="round" fill="#22242A"/></g><rect x="0" y="0" width="50" height="50" stroke="#FFFFFF" stroke-width="15" stroke-opacity="0" fill="none"/><rect x="2" y="2" rx="4" width="46" height="46" fill="none"/></g></g><g><g transform="translate(1470 77)"><g><rect x="0" y="0" rx="10" ry="10" width="100" height="80" stroke="#22242A" stroke-width="2" stroke-linecap="round" stroke-linejoin="round" fill="#FFFFFF" fill-opacity="0.95"/><text fill="#22242A" font-family="Arial,Arial" font-weight="400" font-size="12"><tspan x="34.5" y="22">Send</tspan><tspan x="17" y="36.4">Notification </tspan><tspan x="15" y="50.8">Onboarding </tspan><tspan x="18.5" y="65.2">Completed</tspan></text></g><rect x="0" y="0" width="100" height="80" stroke="#FFFFFF" stroke-width="15" stroke-opacity="0" fill="none"/><rect x="-5" y="-5" rx="14" width="110" height="90" fill="none"/></g></g><g><g transform="translate(1612 99)"><g><circle cx="18" cy="18" r="18" stroke="#22242A" stroke-width="4" stroke-linecap="round" stroke-linejoin="round" fill="#FFFFFF" fill-opacity="0.95"/></g><rect x="0" y="0" width="36" height="36" stroke="#FFFFFF" stroke-width="15" stroke-opacity="0" fill="none"/><circle cx="18" cy="18" r="24" fill="none"/></g></g><g><g transform="translate(1050 250)"><g><rect x="0" y="0" rx="10" ry="10" width="100" height="80" stroke="#22242A" stroke-width="2" stroke-linecap="round" stroke-linejoin="round" fill="#FFFFFF" fill-opacity="0.95"/><text fill="#22242A" font-family="Arial,Arial" font-weight="400" font-size="12"><tspan x="34.5" y="22">Send</tspan><tspan x="17" y="36.4">Notification </tspan><tspan x="15" y="50.8">Onboarding </tspan><tspan x="24.5" y="65.2">Rejected</tspan></text></g><rect x="0" y="0" width="100" height="80" stroke="#FFFFFF" stroke-width="15" stroke-opacity="0" fill="none"/><rect x="-5" y="-5" rx="14" width="110" height="90" fill="none"/></g></g><g><g transform="translate(1202 272)"><g><circle cx="18" cy="18" r="18" stroke="#22242A" stroke-width="4" stroke-linecap="round" stroke-linejoin="round" fill="#FFFFFF" fill-opacity="0.95"/></g><rect x="0" y="0" width="36" height="36" stroke="#FFFFFF" stroke-width="15" stroke-opacity="0" fill="none"/><circle cx="18" cy="18" r="24" fill="none"/></g></g><g><g transform="translate(231 77)"><g><rect x="0" y="0" rx="10" ry="10" width="100" height="80" stroke="#22242A" stroke-width="2" stroke-linecap="round" stroke-linejoin="round" fill="#FFFFFF" fill-opacity="0.95"/><text fill="#22242A" font-family="Arial,Arial" font-weight="400" font-size="12"><tspan x="10" y="43.6">Check Service</tspan></text><circle cx="5" cy="5" r="5" stroke-width="2" stroke-linecap="round" stroke-linejoin="round" fill="#FFFFFF" transform="translate(6 6)"/><path d="M12 18 12 16.2866C12.3523 16.2162 12.7039 16.1083 13.0476 15.9653 13.392 15.8207 13.7135 15.644 14.014 15.4439L15.2083 16.6239 16.7758 15.047 15.5808 13.8669C15.9841 13.253 16.2639 12.5678 16.4062 11.8487L18.0284 11.8387 18.0284 9.61906 16.3918 9.62906C16.3185 9.27753 16.2135 8.92882 16.0683 8.58534 15.923 8.24128 15.7469 7.92094 15.5455 7.62317L16.6766 6.48686 15.0933 4.92393 13.9637 6.05982C13.3496 5.65874 12.6608 5.37889 11.941 5.23735L11.9503 3.61883 9.70917 3.61883 9.71337 5.25007C9.3596 5.32367 9.008 5.42984 8.66358 5.57378 8.31917 5.71815 7.99848 5.8947 7.70008 6.09424L6.53022 4.93601 4.96345 6.51521 6.13188 7.6719C5.72922 8.28473 5.4488 8.96987 5.30715 9.68903L3.64834 9.69203 3.64834 11.9138 5.32081 11.9078C5.39413 12.2585 5.50057 12.6102 5.64509 12.9525 5.79034 13.297 5.9665 13.6169 6.16783 13.9131L4.96848 15.1104 6.55251 16.6705 7.74898 15.477C8.36303 15.8805 9.05186 16.1593 9.77233 16.3003L9.77305 17.9992 11.9999 17.9992ZM12.2215 14.0043C10.4325 14.7545 8.36386 13.9115 7.61176 12.1299 6.85965 10.3467 7.70235 8.28365 9.49202 7.53388 11.2803 6.78452 13.3489 7.62678 14.101 9.40825 14.8531 11.1899 14.0104 13.2544 12.2215 14.0043Z" stroke="#22242A" stroke-linecap="round" stroke-linejoin="round" fill="#FFFFFF"/><circle cx="5" cy="5" r="5" stroke-width="2" stroke-linecap="round" stroke-linejoin="round" fill="#FFFFFF" transform="translate(11 10)"/><path d="M17 22 17 20.2866C17.3523 20.2162 17.7039 20.1083 18.0476 19.9653 18.392 19.8207 18.7134 19.644 19.014 19.4439L20.2083 20.6239 21.7758 19.047 20.5808 17.8669C20.9841 17.253 21.2639 16.5678 21.4062 15.8487L23.0284 15.8387 23.0284 13.6191 21.3918 13.6291C21.3185 13.2775 21.2135 12.9288 21.0683 12.5853 20.923 12.2413 20.7469 11.9209 20.5455 11.6232L21.6766 10.4869 20.0933 8.92393 18.9637 10.0598C18.3496 9.65874 17.6608 9.37889 16.941 9.23735L16.9503 7.61883 14.7092 7.61883 14.7134 9.25007C14.3596 9.32367 14.008 9.42984 13.6636 9.57378 13.3192 9.71815 12.9985 9.8947 12.7001 10.0942L11.5302 8.93601 9.96345 10.5152 11.1319 11.6719C10.7292 12.2847 10.4488 12.9699 10.3071 13.689L8.64834 13.692 8.64834 15.9138 10.3208 15.9078C10.3941 16.2585 10.5006 16.6102 10.6451 16.9525 10.7903 17.297 10.9665 17.6169 11.1678 17.9132L9.96848 19.1104 11.5525 20.6705 12.749 19.477C13.363 19.8805 14.0519 20.1593 14.7723 20.3003L14.773 21.9992 16.9999 21.9992ZM17.2215 18.0043C15.4325 18.7545 13.3639 17.9115 12.6118 16.1299 11.8596 14.3467 12.7024 12.2837 14.492 11.5339 16.2803 10.7845 18.3489 11.6268 19.101 13.4082 19.8531 15.1899 19.0104 17.2544 17.2215 18.0043Z" stroke="#22242A" stroke-linecap="round" stroke-linejoin="round" fill="#FFFFFF"/></g><rect x="0" y="0" width="100" height="80" stroke="#FFFFFF" stroke-width="15" stroke-opacity="0" fill="none"/><rect x="-5" y="-5" rx="14" width="110" height="90" fill="none"/></g></g><g><g transform="translate(900 77)"><g><rect x="0" y="0" rx="10" ry="10" width="100" height="80" stroke="#22242A" stroke-width="2" stroke-linecap="round" stroke-linejoin="round" fill="#FFFFFF" fill-opacity="0.95"/><text fill="#22242A" font-family="Arial,Arial" font-weight="400" font-size="12"><tspan x="10" y="36.4">Assign EOSC </tspan><tspan x="39" y="50.8">PID</tspan></text><circle cx="5" cy="5" r="5" stroke-width="2" stroke-linecap="round" stroke-linejoin="round" fill="#FFFFFF" transform="translate(6 6)"/><path d="M12 18 12 16.2866C12.3523 16.2162 12.7039 16.1083 13.0476 15.9653 13.392 15.8207 13.7135 15.644 14.014 15.4439L15.2083 16.6239 16.7758 15.047 15.5808 13.8669C15.9841 13.253 16.2639 12.5678 16.4062 11.8487L18.0284 11.8387 18.0284 9.61906 16.3918 9.62906C16.3185 9.27753 16.2135 8.92882 16.0683 8.58534 15.923 8.24128 15.7469 7.92094 15.5455 7.62317L16.6766 6.48686 15.0933 4.92393 13.9637 6.05982C13.3496 5.65874 12.6608 5.37889 11.941 5.23735L11.9503 3.61883 9.70917 3.61883 9.71337 5.25007C9.3596 5.32367 9.008 5.42984 8.66358 5.57378 8.31917 5.71815 7.99848 5.8947 7.70008 6.09424L6.53022 4.93601 4.96345 6.51521 6.13188 7.6719C5.72922 8.28473 5.4488 8.96987 5.30715 9.68903L3.64834 9.69203 3.64834 11.9138 5.32081 11.9078C5.39413 12.2585 5.50057 12.6102 5.64509 12.9525 5.79034 13.297 5.9665 13.6169 6.16783 13.9131L4.96848 15.1104 6.55251 16.6705 7.74898 15.477C8.36303 15.8805 9.05186 16.1593 9.77233 16.3003L9.77305 17.9992 11.9999 17.9992ZM12.2215 14.0043C10.4325 14.7545 8.36386 13.9115 7.61176 12.1299 6.85965 10.3467 7.70235 8.28365 9.49202 7.53388 11.2803 6.78452 13.3489 7.62678 14.101 9.40825 14.8531 11.1899 14.0104 13.2544 12.2215 14.0043Z" stroke="#22242A" stroke-linecap="round" stroke-linejoin="round" fill="#FFFFFF"/><circle cx="5" cy="5" r="5" stroke-width="2" stroke-linecap="round" stroke-linejoin="round" fill="#FFFFFF" transform="translate(11 10)"/><path d="M17 22 17 20.2866C17.3523 20.2162 17.7039 20.1083 18.0476 19.9653 18.392 19.8207 18.7134 19.644 19.014 19.4439L20.2083 20.6239 21.7758 19.047 20.5808 17.8669C20.9841 17.253 21.2639 16.5678 21.4062 15.8487L23.0284 15.8387 23.0284 13.6191 21.3918 13.6291C21.3185 13.2775 21.2135 12.9288 21.0683 12.5853 20.923 12.2413 20.7469 11.9209 20.5455 11.6232L21.6766 10.4869 20.0933 8.92393 18.9637 10.0598C18.3496 9.65874 17.6608 9.37889 16.941 9.23735L16.9503 7.61883 14.7092 7.61883 14.7134 9.25007C14.3596 9.32367 14.008 9.42984 13.6636 9.57378 13.3192 9.71815 12.9985 9.8947 12.7001 10.0942L11.5302 8.93601 9.96345 10.5152 11.1319 11.6719C10.7292 12.2847 10.4488 12.9699 10.3071 13.689L8.64834 13.692 8.64834 15.9138 10.3208 15.9078C10.3941 16.2585 10.5006 16.6102 10.6451 16.9525 10.7903 17.297 10.9665 17.6169 11.1678 17.9132L9.96848 19.1104 11.5525 20.6705 12.749 19.477C13.363 19.8805 14.0519 20.1593 14.7723 20.3003L14.773 21.9992 16.9999 21.9992ZM17.2215 18.0043C15.4325 18.7545 13.3639 17.9115 12.6118 16.1299 11.8596 14.3467 12.7024 12.2837 14.492 11.5339 16.2803 10.7845 18.3489 11.6268 19.101 13.4082 19.8531 15.1899 19.0104 17.2544 17.2215 18.0043Z" stroke="#22242A" stroke-linecap="round" stroke-linejoin="round" fill="#FFFFFF"/></g><rect x="0" y="0" width="100" height="80" stroke="#FFFFFF" stroke-width="15" stroke-opacity="0" fill="none"/><rect x="-5" y="-5" rx="14" width="110" height="90" fill="none"/></g></g><g><g transform="translate(370 77)"><g><rect x="0" y="0" rx="10" ry="10" width="100" height="80" stroke="#22242A" stroke-width="2" stroke-linecap="round" stroke-linejoin="round" fill="#FFFFFF" fill-opacity="0.95"/><text fill="#22242A" font-family="Arial,Arial" font-weight="400" font-size="12"><tspan x="19.5" y="36.4">Set Status </tspan><tspan x="26" y="50.8">Pending</tspan></text><circle cx="5" cy="5" r="5" stroke-width="2" stroke-linecap="round" stroke-linejoin="round" fill="#FFFFFF" transform="translate(6 6)"/><path d="M12 18 12 16.2866C12.3523 16.2162 12.7039 16.1083 13.0476 15.9653 13.392 15.8207 13.7135 15.644 14.014 15.4439L15.2083 16.6239 16.7758 15.047 15.5808 13.8669C15.9841 13.253 16.2639 12.5678 16.4062 11.8487L18.0284 11.8387 18.0284 9.61906 16.3918 9.62906C16.3185 9.27753 16.2135 8.92882 16.0683 8.58534 15.923 8.24128 15.7469 7.92094 15.5455 7.62317L16.6766 6.48686 15.0933 4.92393 13.9637 6.05982C13.3496 5.65874 12.6608 5.37889 11.941 5.23735L11.9503 3.61883 9.70917 3.61883 9.71337 5.25007C9.3596 5.32367 9.008 5.42984 8.66358 5.57378 8.31917 5.71815 7.99848 5.8947 7.70008 6.09424L6.53022 4.93601 4.96345 6.51521 6.13188 7.6719C5.72922 8.28473 5.4488 8.96987 5.30715 9.68903L3.64834 9.69203 3.64834 11.9138 5.32081 11.9078C5.39413 12.2585 5.50057 12.6102 5.64509 12.9525 5.79034 13.297 5.9665 13.6169 6.16783 13.9131L4.96848 15.1104 6.55251 16.6705 7.74898 15.477C8.36303 15.8805 9.05186 16.1593 9.77233 16.3003L9.77305 17.9992 11.9999 17.9992ZM12.2215 14.0043C10.4325 14.7545 8.36386 13.9115 7.61176 12.1299 6.85965 10.3467 7.70235 8.28365 9.49202 7.53388 11.2803 6.78452 13.3489 7.62678 14.101 9.40825 14.8531 11.1899 14.0104 13.2544 12.2215 14.0043Z" stroke="#22242A" stroke-linecap="round" stroke-linejoin="round" fill="#FFFFFF"/><circle cx="5" cy="5" r="5" stroke-width="2" stroke-linecap="round" stroke-linejoin="round" fill="#FFFFFF" transform="translate(11 10)"/><path d="M17 22 17 20.2866C17.3523 20.2162 17.7039 20.1083 18.0476 19.9653 18.392 19.8207 18.7134 19.644 19.014 19.4439L20.2083 20.6239 21.7758 19.047 20.5808 17.8669C20.9841 17.253 21.2639 16.5678 21.4062 15.8487L23.0284 15.8387 23.0284 13.6191 21.3918 13.6291C21.3185 13.2775 21.2135 12.9288 21.0683 12.5853 20.923 12.2413 20.7469 11.9209 20.5455 11.6232L21.6766 10.4869 20.0933 8.92393 18.9637 10.0598C18.3496 9.65874 17.6608 9.37889 16.941 9.23735L16.9503 7.61883 14.7092 7.61883 14.7134 9.25007C14.3596 9.32367 14.008 9.42984 13.6636 9.57378 13.3192 9.71815 12.9985 9.8947 12.7001 10.0942L11.5302 8.93601 9.96345 10.5152 11.1319 11.6719C10.7292 12.2847 10.4488 12.9699 10.3071 13.689L8.64834 13.692 8.64834 15.9138 10.3208 15.9078C10.3941 16.2585 10.5006 16.6102 10.6451 16.9525 10.7903 17.297 10.9665 17.6169 11.1678 17.9132L9.96848 19.1104 11.5525 20.6705 12.749 19.477C13.363 19.8805 14.0519 20.1593 14.7723 20.3003L14.773 21.9992 16.9999 21.9992ZM17.2215 18.0043C15.4325 18.7545 13.3639 17.9115 12.6118 16.1299 11.8596 14.3467 12.7024 12.2837 14.492 11.5339 16.2803 10.7845 18.3489 11.6268 19.101 13.4082 19.8531 15.1899 19.0104 17.2544 17.2215 18.0043Z" stroke="#22242A" stroke-linecap="round" stroke-linejoin="round" fill="#FFFFFF"/></g><rect x="0" y="0" width="100" height="80" stroke="#FFFFFF" stroke-width="15" stroke-opacity="0" fill="none"/><rect x="-5" y="-5" rx="14" width="110" height="90" fill="none"/></g></g><g><g transform="translate(1050 77)"><g><rect x="0" y="0" rx="10" ry="10" width="100" height="80" stroke="#22242A" stroke-width="2" stroke-linecap="round" stroke-linejoin="round" fill="#FFFFFF" fill-opacity="0.95"/><text fill="#22242A" font-family="Arial,Arial" font-weight="400" font-size="12"><tspan x="19.5" y="36.4">Set Status </tspan><tspan x="23.5" y="50.8">Approved</tspan></text><circle cx="5" cy="5" r="5" stroke-width="2" stroke-linecap="round" stroke-linejoin="round" fill="#FFFFFF" transform="translate(6 6)"/><path d="M12 18 12 16.2866C12.3523 16.2162 12.7039 16.1083 13.0476 15.9653 13.392 15.8207 13.7135 15.644 14.014 15.4439L15.2083 16.6239 16.7758 15.047 15.5808 13.8669C15.9841 13.253 16.2639 12.5678 16.4062 11.8487L18.0284 11.8387 18.0284 9.61906 16.3918 9.62906C16.3185 9.27753 16.2135 8.92882 16.0683 8.58534 15.923 8.24128 15.7469 7.92094 15.5455 7.62317L16.6766 6.48686 15.0933 4.92393 13.9637 6.05982C13.3496 5.65874 12.6608 5.37889 11.941 5.23735L11.9503 3.61883 9.70917 3.61883 9.71337 5.25007C9.3596 5.32367 9.008 5.42984 8.66358 5.57378 8.31917 5.71815 7.99848 5.8947 7.70008 6.09424L6.53022 4.93601 4.96345 6.51521 6.13188 7.6719C5.72922 8.28473 5.4488 8.96987 5.30715 9.68903L3.64834 9.69203 3.64834 11.9138 5.32081 11.9078C5.39413 12.2585 5.50057 12.6102 5.64509 12.9525 5.79034 13.297 5.9665 13.6169 6.16783 13.9131L4.96848 15.1104 6.55251 16.6705 7.74898 15.477C8.36303 15.8805 9.05186 16.1593 9.77233 16.3003L9.77305 17.9992 11.9999 17.9992ZM12.2215 14.0043C10.4325 14.7545 8.36386 13.9115 7.61176 12.1299 6.85965 10.3467 7.70235 8.28365 9.49202 7.53388 11.2803 6.78452 13.3489 7.62678 14.101 9.40825 14.8531 11.1899 14.0104 13.2544 12.2215 14.0043Z" stroke="#22242A" stroke-linecap="round" stroke-linejoin="round" fill="#FFFFFF"/><circle cx="5" cy="5" r="5" stroke-width="2" stroke-linecap="round" stroke-linejoin="round" fill="#FFFFFF" transform="translate(11 10)"/><path d="M17 22 17 20.2866C17.3523 20.2162 17.7039 20.1083 18.0476 19.9653 18.392 19.8207 18.7134 19.644 19.014 19.4439L20.2083 20.6239 21.7758 19.047 20.5808 17.8669C20.9841 17.253 21.2639 16.5678 21.4062 15.8487L23.0284 15.8387 23.0284 13.6191 21.3918 13.6291C21.3185 13.2775 21.2135 12.9288 21.0683 12.5853 20.923 12.2413 20.7469 11.9209 20.5455 11.6232L21.6766 10.4869 20.0933 8.92393 18.9637 10.0598C18.3496 9.65874 17.6608 9.37889 16.941 9.23735L16.9503 7.61883 14.7092 7.61883 14.7134 9.25007C14.3596 9.32367 14.008 9.42984 13.6636 9.57378 13.3192 9.71815 12.9985 9.8947 12.7001 10.0942L11.5302 8.93601 9.96345 10.5152 11.1319 11.6719C10.7292 12.2847 10.4488 12.9699 10.3071 13.689L8.64834 13.692 8.64834 15.9138 10.3208 15.9078C10.3941 16.2585 10.5006 16.6102 10.6451 16.9525 10.7903 17.297 10.9665 17.6169 11.1678 17.9132L9.96848 19.1104 11.5525 20.6705 12.749 19.477C13.363 19.8805 14.0519 20.1593 14.7723 20.3003L14.773 21.9992 16.9999 21.9992ZM17.2215 18.0043C15.4325 18.7545 13.3639 17.9115 12.6118 16.1299 11.8596 14.3467 12.7024 12.2837 14.492 11.5339 16.2803 10.7845 18.3489 11.6268 19.101 13.4082 19.8531 15.1899 19.0104 17.2544 17.2215 18.0043Z" stroke="#22242A" stroke-linecap="round" stroke-linejoin="round" fill="#FFFFFF"/></g><rect x="0" y="0" width="100" height="80" stroke="#FFFFFF" stroke-width="15" stroke-opacity="0" fill="none"/><rect x="-5" y="-5" rx="14" width="110" height="90" fill="none"/></g></g><g><g transform="translate(900 250)"><g><rect x="0" y="0" rx="10" ry="10" width="100" height="80" stroke="#22242A" stroke-width="2" stroke-linecap="round" stroke-linejoin="round" fill="#FFFFFF" fill-opacity="0.95"/><text fill="#22242A" font-family="Arial,Arial" font-weight="400" font-size="12"><tspan x="19.5" y="36.4">Set Status </tspan><tspan x="24.5" y="50.8">Rejected</tspan></text><circle cx="5" cy="5" r="5" stroke-width="2" stroke-linecap="round" stroke-linejoin="round" fill="#FFFFFF" transform="translate(6 6)"/><path d="M12 18 12 16.2866C12.3523 16.2162 12.7039 16.1083 13.0476 15.9653 13.392 15.8207 13.7135 15.644 14.014 15.4439L15.2083 16.6239 16.7758 15.047 15.5808 13.8669C15.9841 13.253 16.2639 12.5678 16.4062 11.8487L18.0284 11.8387 18.0284 9.61906 16.3918 9.62906C16.3185 9.27753 16.2135 8.92882 16.0683 8.58534 15.923 8.24128 15.7469 7.92094 15.5455 7.62317L16.6766 6.48686 15.0933 4.92393 13.9637 6.05982C13.3496 5.65874 12.6608 5.37889 11.941 5.23735L11.9503 3.61883 9.70917 3.61883 9.71337 5.25007C9.3596 5.32367 9.008 5.42984 8.66358 5.57378 8.31917 5.71815 7.99848 5.8947 7.70008 6.09424L6.53022 4.93601 4.96345 6.51521 6.13188 7.6719C5.72922 8.28473 5.4488 8.96987 5.30715 9.68903L3.64834 9.69203 3.64834 11.9138 5.32081 11.9078C5.39413 12.2585 5.50057 12.6102 5.64509 12.9525 5.79034 13.297 5.9665 13.6169 6.16783 13.9131L4.96848 15.1104 6.55251 16.6705 7.74898 15.477C8.36303 15.8805 9.05186 16.1593 9.77233 16.3003L9.77305 17.9992 11.9999 17.9992ZM12.2215 14.0043C10.4325 14.7545 8.36386 13.9115 7.61176 12.1299 6.85965 10.3467 7.70235 8.28365 9.49202 7.53388 11.2803 6.78452 13.3489 7.62678 14.101 9.40825 14.8531 11.1899 14.0104 13.2544 12.2215 14.0043Z" stroke="#22242A" stroke-linecap="round" stroke-linejoin="round" fill="#FFFFFF"/><circle cx="5" cy="5" r="5" stroke-width="2" stroke-linecap="round" stroke-linejoin="round" fill="#FFFFFF" transform="translate(11 10)"/><path d="M17 22 17 20.2866C17.3523 20.2162 17.7039 20.1083 18.0476 19.9653 18.392 19.8207 18.7134 19.644 19.014 19.4439L20.2083 20.6239 21.7758 19.047 20.5808 17.8669C20.9841 17.253 21.2639 16.5678 21.4062 15.8487L23.0284 15.8387 23.0284 13.6191 21.3918 13.6291C21.3185 13.2775 21.2135 12.9288 21.0683 12.5853 20.923 12.2413 20.7469 11.9209 20.5455 11.6232L21.6766 10.4869 20.0933 8.92393 18.9637 10.0598C18.3496 9.65874 17.6608 9.37889 16.941 9.23735L16.9503 7.61883 14.7092 7.61883 14.7134 9.25007C14.3596 9.32367 14.008 9.42984 13.6636 9.57378 13.3192 9.71815 12.9985 9.8947 12.7001 10.0942L11.5302 8.93601 9.96345 10.5152 11.1319 11.6719C10.7292 12.2847 10.4488 12.9699 10.3071 13.689L8.64834 13.692 8.64834 15.9138 10.3208 15.9078C10.3941 16.2585 10.5006 16.6102 10.6451 16.9525 10.7903 17.297 10.9665 17.6169 11.1678 17.9132L9.96848 19.1104 11.5525 20.6705 12.749 19.477C13.363 19.8805 14.0519 20.1593 14.7723 20.3003L14.773 21.9992 16.9999 21.9992ZM17.2215 18.0043C15.4325 18.7545 13.3639 17.9115 12.6118 16.1299 11.8596 14.3467 12.7024 12.2837 14.492 11.5339 16.2803 10.7845 18.3489 11.6268 19.101 13.4082 19.8531 15.1899 19.0104 17.2544 17.2215 18.0043Z" stroke="#22242A" stroke-linecap="round" stroke-linejoin="round" fill="#FFFFFF"/></g><rect x="0" y="0" width="100" height="80" stroke="#FFFFFF" stroke-width="15" stroke-opacity="0" fill="none"/><rect x="-5" y="-5" rx="14" width="110" height="90" fill="none"/></g></g><g><g transform="translate(1330 77)"><g><rect x="0" y="0" rx="10" ry="10" width="100" height="80" stroke="#22242A" stroke-width="2" stroke-linecap="round" stroke-linejoin="round" fill="#FFFFFF" fill-opacity="0.95"/><text fill="#22242A" font-family="Arial,Arial" font-weight="400" font-size="12"><tspan x="11.5" y="36.4">Push Service </tspan><tspan x="29.5" y="50.8">to CMS</tspan></text></g><rect x="0" y="0" width="100" height="80" stroke="#FFFFFF" stroke-width="15" stroke-opacity="0" fill="none"/><rect x="-5" y="-5" rx="14" width="110" height="90" fill="none"/></g></g><g><g transform="translate(1190 77)"><g><rect x="0" y="0" rx="10" ry="10" width="100" height="80" stroke="#22242A" stroke-width="2" stroke-linecap="round" stroke-linejoin="round" fill="#FFFFFF" fill-opacity="0.95"/><text fill="#22242A" font-family="Arial,Arial" font-weight="400" font-size="12"><tspan x="11.5" y="36.4">Push Service </tspan><tspan x="28" y="50.8">to Index</tspan></text><circle cx="5" cy="5" r="5" stroke-width="2" stroke-linecap="round" stroke-linejoin="round" fill="#FFFFFF" transform="translate(6 6)"/><path d="M12 18 12 16.2866C12.3523 16.2162 12.7039 16.1083 13.0476 15.9653 13.392 15.8207 13.7135 15.644 14.014 15.4439L15.2083 16.6239 16.7758 15.047 15.5808 13.8669C15.9841 13.253 16.2639 12.5678 16.4062 11.8487L18.0284 11.8387 18.0284 9.61906 16.3918 9.62906C16.3185 9.27753 16.2135 8.92882 16.0683 8.58534 15.923 8.24128 15.7469 7.92094 15.5455 7.62317L16.6766 6.48686 15.0933 4.92393 13.9637 6.05982C13.3496 5.65874 12.6608 5.37889 11.941 5.23735L11.9503 3.61883 9.70917 3.61883 9.71337 5.25007C9.3596 5.32367 9.008 5.42984 8.66358 5.57378 8.31917 5.71815 7.99848 5.8947 7.70008 6.09424L6.53022 4.93601 4.96345 6.51521 6.13188 7.6719C5.72922 8.28473 5.4488 8.96987 5.30715 9.68903L3.64834 9.69203 3.64834 11.9138 5.32081 11.9078C5.39413 12.2585 5.50057 12.6102 5.64509 12.9525 5.79034 13.297 5.9665 13.6169 6.16783 13.9131L4.96848 15.1104 6.55251 16.6705 7.74898 15.477C8.36303 15.8805 9.05186 16.1593 9.77233 16.3003L9.77305 17.9992 11.9999 17.9992ZM12.2215 14.0043C10.4325 14.7545 8.36386 13.9115 7.61176 12.1299 6.85965 10.3467 7.70235 8.28365 9.49202 7.53388 11.2803 6.78452 13.3489 7.62678 14.101 9.40825 14.8531 11.1899 14.0104 13.2544 12.2215 14.0043Z" stroke="#22242A" stroke-linecap="round" stroke-linejoin="round" fill="#FFFFFF"/><circle cx="5" cy="5" r="5" stroke-width="2" stroke-linecap="round" stroke-linejoin="round" fill="#FFFFFF" transform="translate(11 10)"/><path d="M17 22 17 20.2866C17.3523 20.2162 17.7039 20.1083 18.0476 19.9653 18.392 19.8207 18.7134 19.644 19.014 19.4439L20.2083 20.6239 21.7758 19.047 20.5808 17.8669C20.9841 17.253 21.2639 16.5678 21.4062 15.8487L23.0284 15.8387 23.0284 13.6191 21.3918 13.6291C21.3185 13.2775 21.2135 12.9288 21.0683 12.5853 20.923 12.2413 20.7469 11.9209 20.5455 11.6232L21.6766 10.4869 20.0933 8.92393 18.9637 10.0598C18.3496 9.65874 17.6608 9.37889 16.941 9.23735L16.9503 7.61883 14.7092 7.61883 14.7134 9.25007C14.3596 9.32367 14.008 9.42984 13.6636 9.57378 13.3192 9.71815 12.9985 9.8947 12.7001 10.0942L11.5302 8.93601 9.96345 10.5152 11.1319 11.6719C10.7292 12.2847 10.4488 12.9699 10.3071 13.689L8.64834 13.692 8.64834 15.9138 10.3208 15.9078C10.3941 16.2585 10.5006 16.6102 10.6451 16.9525 10.7903 17.297 10.9665 17.6169 11.1678 17.9132L9.96848 19.1104 11.5525 20.6705 12.749 19.477C13.363 19.8805 14.0519 20.1593 14.7723 20.3003L14.773 21.9992 16.9999 21.9992ZM17.2215 18.0043C15.4325 18.7545 13.3639 17.9115 12.6118 16.1299 11.8596 14.3467 12.7024 12.2837 14.492 11.5339 16.2803 10.7845 18.3489 11.6268 19.101 13.4082 19.8531 15.1899 19.0104 17.2544 17.2215 18.0043Z" stroke="#22242A" stroke-linecap="round" stroke-linejoin="round" fill="#FFFFFF"/></g><rect x="0" y="0" width="100" height="80" stroke="#FFFFFF" stroke-width="15" stroke-opacity="0" fill="none"/><rect x="-5" y="-5" rx="14" width="110" height="90" fill="none"/></g></g><g><g transform="translate(650 77)"><g><rect x="0" y="0" rx="10" ry="10" width="100" height="80" stroke="#22242A" stroke-width="2" stroke-linecap="round" stroke-linejoin="round" fill="#FFFFFF" fill-opacity="0.95"/><text fill="#22242A" font-family="Arial,Arial" font-weight="400" font-size="12"><tspan x="27.5" y="36.4">Service </tspan><tspan x="24" y="50.8">Validated</tspan></text></g><rect x="0" y="0" width="100" height="80" stroke="#FFFFFF" stroke-width="15" stroke-opacity="0" fill="none"/><rect x="-5" y="-5" rx="14" width="110" height="90" fill="none"/></g></g><g><g><g><path d="M196 117 231 117" stroke="#22242A" stroke-width="2" stroke-linecap="round" stroke-linejoin="round" fill="none" marker-end="url(#sequenceflow-end-white-hsl_225_10_15_-ddffo594fxlmataoyrfeefht2)"/></g><rect x="191" y="112" rx="4" width="45" height="10" fill="none"/><path d="M196 117 231 117" stroke="#FFFFFF" stroke-width="15" stroke-opacity="0" fill="none"/></g></g><g><g><g><path d="M331 117 370 117" stroke="#22242A" stroke-width="2" stroke-linecap="round" stroke-linejoin="round" fill="none" marker-end="url(#sequenceflow-end-white-hsl_225_10_15_-ddffo594fxlmataoyrfeefht2)"/></g><rect x="326" y="112" rx="4" width="49" height="10" fill="none"/><path d="M331 117 370 117" stroke="#FFFFFF" stroke-width="15" stroke-opacity="0" fill="none"/></g></g><g><g><g><path d="M470 117 510 117" stroke="#22242A" stroke-width="2" stroke-linecap="round" stroke-linejoin="round" fill="none" marker-end="url(#sequenceflow-end-white-hsl_225_10_15_-ddffo594fxlmataoyrfeefht2)"/></g><rect x="465" y="112" rx="4" width="50" height="10" fill="none"/><path d="M470 117 510 117" stroke="#FFFFFF" stroke-width="15" stroke-opacity="0" fill="none"/></g></g><g><g><g><path d="M610 117 650 117" stroke="#22242A" stroke-width="2" stroke-linecap="round" stroke-linejoin="round" fill="none" marker-end="url(#sequenceflow-end-white-hsl_225_10_15_-ddffo594fxlmataoyrfeefht2)"/></g><rect x="605" y="112" rx="4" width="50" height="10" fill="none"/><path d="M610 117 650 117" stroke="#FFFFFF" stroke-width="15" stroke-opacity="0" fill="none"/></g></g><g><g><g><path d="M825 117 900 117" stroke="#22242A" stroke-width="2" stroke-linecap="round" stroke-linejoin="round" fill="none" marker-end="url(#sequenceflow-end-white-hsl_225_10_15_-ddffo594fxlmataoyrfeefht2)"/></g><rect x="820" y="112" rx="4" width="85" height="10" fill="none"/><path d="M825 117 900 117" stroke="#FFFFFF" stroke-width="15" stroke-opacity="0" fill="none"/></g></g><g><g transform="translate(838 99)"><g><text fill="#22242A" font-family="Arial,Arial" font-weight="400" font-size="11"><tspan x="0" y="9.9">Approved</tspan></text></g><rect x="0" y="0" width="50" height="14" stroke="#FFFFFF" stroke-width="15" stroke-opacity="0" fill="none"/><rect x="-5" y="-5" rx="4" width="60" height="24" fill="none"/></g></g><g><g><g><path d="M1000 117 1050 117" stroke="#22242A" stroke-width="2" stroke-linecap="round" stroke-linejoin="round" fill="none" marker-end="url(#sequenceflow-end-white-hsl_225_10_15_-ddffo594fxlmataoyrfeefht2)"/></g><rect x="995" y="112" rx="4" width="60" height="10" fill="none"/><path d="M1000 117 1050 117" stroke="#FFFFFF" stroke-width="15" stroke-opacity="0" fill="none"/></g></g><g><g><g><path d="M1150 117 1190 117" stroke="#22242A" stroke-width="2" stroke-linecap="round" stroke-linejoin="round" fill="none" marker-end="url(#sequenceflow-end-white-hsl_225_10_15_-ddffo594fxlmataoyrfeefht2)"/></g><rect x="1145" y="112" rx="4" width="50" height="10" fill="none"/><path d="M1150 117 1190 117" stroke="#FFFFFF" stroke-width="15" stroke-opacity="0" fill="none"/></g></g><g><g><g><path d="M1290 117 1330 117" stroke="#22242A" stroke-width="2" stroke-linecap="round" stroke-linejoin="round" fill="none" marker-end="url(#sequenceflow-end-white-hsl_225_10_15_-ddffo594fxlmataoyrfeefht2)"/></g><rect x="1285" y="112" rx="4" width="50" height="10" fill="none"/><path d="M1290 117 1330 117" stroke="#FFFFFF" stroke-width="15" stroke-opacity="0" fill="none"/></g></g><g><g><g><path d="M1570 117 1612 117" stroke="#22242A" stroke-width="2" stroke-linecap="round" stroke-linejoin="round" fill="none" marker-end="url(#sequenceflow-end-white-hsl_225_10_15_-ddffo594fxlmataoyrfeefht2)"/></g><rect x="1565" y="112" rx="4" width="52" height="10" fill="none"/><path d="M1570 117 1612 117" stroke="#FFFFFF" stroke-width="15" stroke-opacity="0" fill="none"/></g></g><g><g><g><path d="M800 142 800 285C800 287.5 802.5 290 805 290L900 290" stroke="#22242A" stroke-width="2" stroke-linecap="round" stroke-linejoin="round" fill="none" marker-start="url(#conditional-default-flow-marker-white-hsl_225_10_15_-ddffo594fxlmataoyrfeefht2)" marker-end="url(#sequenceflow-end-white-hsl_225_10_15_-ddffo594fxlmataoyrfeefht2)"/></g><rect x="795" y="137" rx="4" width="110" height="158" fill="none"/><path d="M800 142 800 290 900 290" stroke="#FFFFFF" stroke-width="15" stroke-opacity="0" fill="none"/></g></g><g><g transform="translate(841 273)"><g><text fill="#22242A" font-family="Arial,Arial" font-weight="400" font-size="11"><tspan x="0" y="9.9">Rejected</tspan></text></g><rect x="0" y="0" width="44" height="14" stroke="#FFFFFF" stroke-width="15" stroke-opacity="0" fill="none"/><rect x="-5" y="-5" rx="4" width="54" height="24" fill="none"/></g></g><g><g><g><path d="M1150 290 1202 290" stroke="#22242A" stroke-width="2" stroke-linecap="round" stroke-linejoin="round" fill="none" marker-end="url(#sequenceflow-end-white-hsl_225_10_15_-ddffo594fxlmataoyrfeefht2)"/></g><rect x="1145" y="285" rx="4" width="62" height="10" fill="none"/><path d="M1150 290 1202 290" stroke="#FFFFFF" stroke-width="15" stroke-opacity="0" fill="none"/></g></g><g><g><g><path d="M1000 290 1050 290" stroke="#22242A" stroke-width="2" stroke-linecap="round" stroke-linejoin="round" fill="none" marker-end="url(#sequenceflow-end-white-hsl_225_10_15_-ddffo594fxlmataoyrfeefht2)"/></g><rect x="995" y="285" rx="4" width="60" height="10" fill="none"/><path d="M1000 290 1050 290" stroke="#FFFFFF" stroke-width="15" stroke-opacity="0" fill="none"/></g></g><g><g><g><path d="M1430 117 1470 117" stroke="#22242A" stroke-width="2" stroke-linecap="round" stroke-linejoin="round" fill="none" marker-end="url(#sequenceflow-end-white-hsl_225_10_15_-ddffo594fxlmataoyrfeefht2)"/></g><rect x="1425" y="112" rx="4" width="50" height="10" fill="none"/><path d="M1430 117 1470 117" stroke="#FFFFFF" stroke-width="15" stroke-opacity="0" fill="none"/></g></g><g><g><g><path d="M750 117 775 117" stroke="#22242A" stroke-width="2" stroke-linecap="round" stroke-linejoin="round" fill="none" marker-end="url(#sequenceflow-end-white-hsl_225_10_15_-ddffo594fxlmataoyrfeefht2)"/></g><rect x="745" y="112" rx="4" width="35" height="10" fill="none"/><path d="M750 117 775 117" stroke="#FFFFFF" stroke-width="15" stroke-opacity="0" fill="none"/></g></g></svg>